HIERARCHY
ROOT Hips
{
  OFFSET 0.000000 95.000000 0.000000
  CHANNELS 6 Xposition Yposition Zposition Zrotation Xrotation Yrotation
  JOINT Spine
  {
    OFFSET 0.000000 10.000000 0.000000
    CHANNELS 3 Zrotation Xrotation Yrotation
    JOINT Spine1
    {
      OFFSET 0.000000 12.000000 0.000000
      CHANNELS 3 Zrotation Xrotation Yrotation
      JOINT Spine2
      {
        OFFSET 0.000000 12.000000 0.000000
        CHANNELS 3 Zrotation Xrotation Yrotation
        JOINT Neck
        {
          OFFSET 0.000000 10.000000 0.000000
          CHANNELS 3 Zrotation Xrotation Yrotation
          JOINT Head
          {
            OFFSET 0.000000 8.000000 0.000000
            CHANNELS 3 Zrotation Xrotation Yrotation
            End Site
            {
              OFFSET 0.000000 10.000000 0.000000
            }
          }
        }
        JOINT LeftShoulder
        {
          OFFSET 6.000000 8.000000 0.000000
          CHANNELS 3 Zrotation Xrotation Yrotation
          JOINT LeftArm
          {
            OFFSET 12.000000 0.000000 0.000000
            CHANNELS 3 Zrotation Xrotation Yrotation
            JOINT LeftForeArm
            {
              OFFSET 24.000000 0.000000 0.000000
              CHANNELS 3 Zrotation Xrotation Yrotation
              JOINT LeftHand
              {
                OFFSET 22.000000 0.000000 0.000000
                CHANNELS 3 Zrotation Xrotation Yrotation
                JOINT LeftHandThumb1
                {
                  OFFSET 1.800000 -1.400000 0.500000
                  CHANNELS 3 Zrotation Xrotation Yrotation
                  JOINT LeftHandThumb2
                  {
                    OFFSET 2.400000 0.000000 0.000000
                    CHANNELS 3 Zrotation Xrotation Yrotation
                    JOINT LeftHandThumb3
                    {
                      OFFSET 1.900000 0.000000 0.000000
                      CHANNELS 3 Zrotation Xrotation Yrotation
                      End Site
                      {
                        OFFSET 1.600000 0.000000 0.000000
                      }
                    }
                  }
                }
                JOINT LeftHandIndex1
                {
                  OFFSET 6.600000 1.200000 0.300000
                  CHANNELS 3 Zrotation Xrotation Yrotation
                  JOINT LeftHandIndex2
                  {
                    OFFSET 2.000000 0.000000 0.000000
                    CHANNELS 3 Zrotation Xrotation Yrotation
                    JOINT LeftHandIndex3
                    {
                      OFFSET 1.200000 0.000000 0.000000
                      CHANNELS 3 Zrotation Xrotation Yrotation
                      End Site
                      {
                        OFFSET 1.000000 0.000000 0.000000
                      }
                    }
                  }
                }
                JOINT LeftHandMiddle1
                {
                  OFFSET 7.200000 0.000000 0.300000
                  CHANNELS 3 Zrotation Xrotation Yrotation
                  JOINT LeftHandMiddle2
                  {
                    OFFSET 3.000000 0.000000 0.000000
                    CHANNELS 3 Zrotation Xrotation Yrotation
                    JOINT LeftHandMiddle3
                    {
                      OFFSET 2.000000 0.000000 0.000000
                      CHANNELS 3 Zrotation Xrotation Yrotation
                      End Site
                      {
                        OFFSET 1.600000 0.000000 0.000000
                      }
                    }
                  }
                }
                JOINT LeftHandRing1
                {
                  OFFSET 7.100000 -1.000000 0.400000
                  CHANNELS 3 Zrotation Xrotation Yrotation
                  JOINT LeftHandRing2
                  {
                    OFFSET 2.600000 0.000000 0.000000
                    CHANNELS 3 Zrotation Xrotation Yrotation
                    JOINT LeftHandRing3
                    {
                      OFFSET 1.600000 0.000000 0.000000
                      CHANNELS 3 Zrotation Xrotation Yrotation
                      End Site
                      {
                        OFFSET 1.300000 0.000000 0.000000
                      }
                    }
                  }
                }
                JOINT LeftHandPinky1
                {
                  OFFSET 6.500000 -2.000000 0.500000
                  CHANNELS 3 Zrotation Xrotation Yrotation
                  JOINT LeftHandPinky2
                  {
                    OFFSET 1.900000 0.000000 0.000000
                    CHANNELS 3 Zrotation Xrotation Yrotation
                    JOINT LeftHandPinky3
                    {
                      OFFSET 1.400000 0.000000 0.000000
                      CHANNELS 3 Zrotation Xrotation Yrotation
                      End Site
                      {
                        OFFSET 1.300000 0.000000 0.000000
                      }
                    }
                  }
                }
              }
            }
          }
        }
        JOINT RightShoulder
        {
          OFFSET -6.000000 8.000000 0.000000
          CHANNELS 3 Zrotation Xrotation Yrotation
          JOINT RightArm
          {
            OFFSET -12.000000 0.000000 0.000000
            CHANNELS 3 Zrotation Xrotation Yrotation
            JOINT RightForeArm
            {
              OFFSET -24.000000 0.000000 0.000000
              CHANNELS 3 Zrotation Xrotation Yrotation
              JOINT RightHand
              {
                OFFSET -22.000000 0.000000 0.000000
                CHANNELS 3 Zrotation Xrotation Yrotation
                JOINT RightHandThumb1
                {
                  OFFSET -1.800000 -1.400000 0.500000
                  CHANNELS 3 Zrotation Xrotation Yrotation
                  JOINT RightHandThumb2
                  {
                    OFFSET -2.400000 0.000000 0.000000
                    CHANNELS 3 Zrotation Xrotation Yrotation
                    JOINT RightHandThumb3
                    {
                      OFFSET -1.900000 0.000000 0.000000
                      CHANNELS 3 Zrotation Xrotation Yrotation
                      End Site
                      {
                        OFFSET -1.600000 0.000000 0.000000
                      }
                    }
                  }
                }
                JOINT RightHandIndex1
                {
                  OFFSET -6.600000 1.200000 0.300000
                  CHANNELS 3 Zrotation Xrotation Yrotation
                  JOINT RightHandIndex2
                  {
                    OFFSET -2.000000 0.000000 0.000000
                    CHANNELS 3 Zrotation Xrotation Yrotation
                    JOINT RightHandIndex3
                    {
                      OFFSET -1.200000 0.000000 0.000000
                      CHANNELS 3 Zrotation Xrotation Yrotation
                      End Site
                      {
                        OFFSET -1.000000 0.000000 0.000000
                      }
                    }
                  }
                }
                JOINT RightHandMiddle1
                {
                  OFFSET -7.200000 0.000000 0.300000
                  CHANNELS 3 Zrotation Xrotation Yrotation
                  JOINT RightHandMiddle2
                  {
                    OFFSET -3.000000 0.000000 0.000000
                    CHANNELS 3 Zrotation Xrotation Yrotation
                    JOINT RightHandMiddle3
                    {
                      OFFSET -2.000000 0.000000 0.000000
                      CHANNELS 3 Zrotation Xrotation Yrotation
                      End Site
                      {
                        OFFSET -1.600000 0.000000 0.000000
                      }
                    }
                  }
                }
                JOINT RightHandRing1
                {
                  OFFSET -7.100000 -1.000000 0.400000
                  CHANNELS 3 Zrotation Xrotation Yrotation
                  JOINT RightHandRing2
                  {
                    OFFSET -2.600000 0.000000 0.000000
                    CHANNELS 3 Zrotation Xrotation Yrotation
                    JOINT RightHandRing3
                    {
                      OFFSET -1.600000 0.000000 0.000000
                      CHANNELS 3 Zrotation Xrotation Yrotation
                      End Site
                      {
                        OFFSET -1.300000 0.000000 0.000000
                      }
                    }
                  }
                }
                JOINT RightHandPinky1
                {
                  OFFSET -6.500000 -2.000000 0.500000
                  CHANNELS 3 Zrotation Xrotation Yrotation
                  JOINT RightHandPinky2
                  {
                    OFFSET -1.900000 0.000000 0.000000
                    CHANNELS 3 Zrotation Xrotation Yrotation
                    JOINT RightHandPinky3
                    {
                      OFFSET -1.400000 0.000000 0.000000
                      CHANNELS 3 Zrotation Xrotation Yrotation
                      End Site
                      {
                        OFFSET -1.300000 0.000000 0.000000
                      }
                    }
                  }
                }
              }
            }
          }
        }
      }
    }
  }
  JOINT LeftUpLeg
  {
    OFFSET 10.000000 -5.000000 0.000000
    CHANNELS 3 Zrotation Xrotation Yrotation
    JOINT LeftLeg
    {
      OFFSET 0.000000 -42.000000 0.000000
      CHANNELS 3 Zrotation Xrotation Yrotation
      JOINT LeftFoot
      {
        OFFSET 0.000000 -42.000000 4.000000
        CHANNELS 3 Zrotation Xrotation Yrotation
        End Site
        {
          OFFSET 0.000000 0.000000 12.000000
        }
      }
    }
  }
  JOINT RightUpLeg
  {
    OFFSET -10.000000 -5.000000 0.000000
    CHANNELS 3 Zrotation Xrotation Yrotation
    JOINT RightLeg
    {
      OFFSET 0.000000 -42.000000 0.000000
      CHANNELS 3 Zrotation Xrotation Yrotation
      JOINT RightFoot
      {
        OFFSET 0.000000 -42.000000 4.000000
        CHANNELS 3 Zrotation Xrotation Yrotation
        End Site
        {
          OFFSET 0.000000 0.000000 12.000000
        }
      }
    }
  }
}
MOTION
Frames: 6
Frame Time: 0.033333
0.0000 95.0000 0.0000 0.0000 0.0000 0.0000 0.0000 0.0000 0.0000 0.0000 0.0000 0.0000 0.0000 0.0000 0.0000 0.0000 0.0000 0.0000 0.0000 0.0000 0.0000 0.0000 0.0000 0.0000 -81.3388 -3.6903 -4.2945 -13.4085 -4.0251 4.7927 60.3706 31.8075 -21.1353 95.6606 -15.4364 -17.1184 8.5339 0.0000 0.0000 14.8258 0.0000 0.0000 9.9936 -0.7546 1.0656 45.2763 0.0000 0.0000 21.3632 0.0000 0.0000 18.2063 -0.4332 -2.0687 42.0817 0.0000 0.0000 14.5583 0.0000 0.0000 15.6503 -0.8608 3.2517 36.7214 0.0000 0.0000 13.6018 0.0000 0.0000 12.2977 0.8344 9.0165 19.1342 0.0000 0.0000 11.2171 0.0000 0.0000 0.0000 0.0000 0.0000 89.0002 -4.5176 4.5971 -3.0133 14.3177 13.4223 104.2267 -40.0122 76.9723 -54.2917 -14.0023 14.4873 14.4831 0.0000 0.0000 6.4747 0.0000 0.0000 10.2720 2.8505 26.2844 12.4319 0.0000 0.0000 10.4343 0.0000 0.0000 9.3906 -1.1432 18.6239 25.2197 0.0000 0.0000 8.8778 0.0000 0.0000 6.2546 -4.4656 24.3877 23.8863 0.0000 0.0000 14.5118 0.0000 0.0000 -2.1582 -7.3123 24.9505 12.2511 0.0000 0.0000 10.1539 0.0000 0.0000 0.0000 0.0000 0.0000 0.0000 0.0000 0.0000 0.0000 0.0000 0.0000 0.0000 0.0000 0.0000 0.0000 0.0000 0.0000 0.0000 0.0000 0.0000
0.0000 95.0000 0.0000 0.0000 0.0000 0.0000 0.0000 0.0000 0.0000 0.0000 0.0000 0.0000 0.0000 0.0000 0.0000 0.0000 0.0000 0.0000 0.0000 0.0000 0.0000 0.0000 0.0000 0.0000 -81.3597 -3.6220 -4.2134 -13.1701 -3.7277 4.3699 60.2850 31.4566 -20.9012 95.6606 -15.4364 -17.1184 8.5339 0.0000 0.0000 14.8258 0.0000 0.0000 9.9936 -0.7546 1.0656 45.2763 0.0000 0.0000 21.3632 0.0000 0.0000 18.2063 -0.4332 -2.0687 42.0817 0.0000 0.0000 14.5583 0.0000 0.0000 15.6503 -0.8608 3.2517 36.7214 0.0000 0.0000 13.6018 0.0000 0.0000 12.2977 0.8344 9.0165 19.1342 0.0000 0.0000 11.2171 0.0000 0.0000 0.0000 0.0000 0.0000 89.0009 -4.7963 4.8806 -3.2350 14.4827 13.4804 103.7701 -40.3208 76.8912 -54.2917 -14.0023 14.4873 14.4831 0.0000 0.0000 6.4747 0.0000 0.0000 10.2720 2.8505 26.2844 12.4319 0.0000 0.0000 10.4343 0.0000 0.0000 9.3906 -1.1432 18.6239 25.2197 0.0000 0.0000 8.8778 0.0000 0.0000 6.2546 -4.4656 24.3877 23.8863 0.0000 0.0000 14.5118 0.0000 0.0000 -2.1582 -7.3123 24.9505 12.2511 0.0000 0.0000 10.1539 0.0000 0.0000 0.0000 0.0000 0.0000 0.0000 0.0000 0.0000 0.0000 0.0000 0.0000 0.0000 0.0000 0.0000 0.0000 0.0000 0.0000 0.0000 0.0000 0.0000
0.0000 95.0000 0.0000 0.0000 0.0000 0.0000 0.0000 0.0000 0.0000 0.0000 0.0000 0.0000 0.0000 0.0000 0.0000 0.0000 0.0000 0.0000 0.0000 0.0000 0.0000 0.0000 0.0000 0.0000 -81.3485 -3.6764 -4.2775 -13.0867 -3.6582 4.2507 60.2618 31.2756 -20.7632 95.6606 -15.4364 -17.1184 8.5339 0.0000 0.0000 14.8258 0.0000 0.0000 9.9936 -0.7546 1.0656 45.2763 0.0000 0.0000 21.3632 0.0000 0.0000 18.2063 -0.4332 -2.0687 42.0817 0.0000 0.0000 14.5583 0.0000 0.0000 15.6503 -0.8608 3.2517 36.7214 0.0000 0.0000 13.6018 0.0000 0.0000 12.2977 0.8344 9.0165 19.1342 0.0000 0.0000 11.2171 0.0000 0.0000 0.0000 0.0000 0.0000 88.9692 -4.7839 4.8707 -3.3290 14.6146 13.5833 103.6542 -40.4949 76.8800 -54.2917 -14.0023 14.4873 14.4831 0.0000 0.0000 6.4747 0.0000 0.0000 10.2720 2.8505 26.2844 12.4319 0.0000 0.0000 10.4343 0.0000 0.0000 9.3906 -1.1432 18.6239 25.2197 0.0000 0.0000 8.8778 0.0000 0.0000 6.2546 -4.4656 24.3877 23.8863 0.0000 0.0000 14.5118 0.0000 0.0000 -2.1582 -7.3123 24.9505 12.2511 0.0000 0.0000 10.1539 0.0000 0.0000 0.0000 0.0000 0.0000 0.0000 0.0000 0.0000 0.0000 0.0000 0.0000 0.0000 0.0000 0.0000 0.0000 0.0000 0.0000 0.0000 0.0000 0.0000
0.0000 95.0000 0.0000 0.0000 0.0000 0.0000 0.0000 0.0000 0.0000 0.0000 0.0000 0.0000 0.0000 0.0000 0.0000 0.0000 0.0000 0.0000 0.0000 0.0000 0.0000 0.0000 0.0000 0.0000 -81.4922 -3.7805 -4.3876 -12.9362 -3.6144 4.1433 60.3491 31.0977 -20.5396 95.6606 -15.4364 -17.1184 8.5339 0.0000 0.0000 14.8258 0.0000 0.0000 9.9936 -0.7546 1.0656 45.2763 0.0000 0.0000 21.3632 0.0000 0.0000 18.2063 -0.4332 -2.0687 42.0817 0.0000 0.0000 14.5583 0.0000 0.0000 15.6503 -0.8608 3.2517 36.7214 0.0000 0.0000 13.6018 0.0000 0.0000 12.2977 0.8344 9.0165 19.1342 0.0000 0.0000 11.2171 0.0000 0.0000 0.0000 0.0000 0.0000 88.8707 -4.9275 5.0255 -3.2888 14.6941 13.6786 103.3747 -40.6130 76.8259 -54.2917 -14.0023 14.4873 14.4831 0.0000 0.0000 6.4747 0.0000 0.0000 10.2720 2.8505 26.2844 12.4319 0.0000 0.0000 10.4343 0.0000 0.0000 9.3906 -1.1432 18.6239 25.2197 0.0000 0.0000 8.8778 0.0000 0.0000 6.2546 -4.4656 24.3877 23.8863 0.0000 0.0000 14.5118 0.0000 0.0000 -2.1582 -7.3123 24.9505 12.2511 0.0000 0.0000 10.1539 0.0000 0.0000 0.0000 0.0000 0.0000 0.0000 0.0000 0.0000 0.0000 0.0000 0.0000 0.0000 0.0000 0.0000 0.0000 0.0000 0.0000 0.0000 0.0000 0.0000
0.0000 95.0000 0.0000 0.0000 0.0000 0.0000 0.0000 0.0000 0.0000 0.0000 0.0000 0.0000 0.0000 0.0000 0.0000 0.0000 0.0000 0.0000 0.0000 0.0000 0.0000 0.0000 0.0000 0.0000 -81.4871 -3.9179 -4.5473 -12.8493 -3.5550 4.0146 60.3735 30.8323 -20.2905 95.6606 -15.4364 -17.1184 8.5339 0.0000 0.0000 14.8258 0.0000 0.0000 9.9936 -0.7546 1.0656 45.2763 0.0000 0.0000 21.3632 0.0000 0.0000 18.2063 -0.4332 -2.0687 42.0817 0.0000 0.0000 14.5583 0.0000 0.0000 15.6503 -0.8608 3.2517 36.7214 0.0000 0.0000 13.6018 0.0000 0.0000 12.2977 0.8344 9.0165 19.1342 0.0000 0.0000 11.2171 0.0000 0.0000 0.0000 0.0000 0.0000 88.8035 -4.9544 5.0588 -3.1217 14.6813 13.7332 103.3077 -40.5291 76.8022 -54.2917 -14.0023 14.4873 14.4831 0.0000 0.0000 6.4747 0.0000 0.0000 10.2720 2.8505 26.2844 12.4319 0.0000 0.0000 10.4343 0.0000 0.0000 9.3906 -1.1432 18.6239 25.2197 0.0000 0.0000 8.8778 0.0000 0.0000 6.2546 -4.4656 24.3877 23.8863 0.0000 0.0000 14.5118 0.0000 0.0000 -2.1582 -7.3123 24.9505 12.2511 0.0000 0.0000 10.1539 0.0000 0.0000 0.0000 0.0000 0.0000 0.0000 0.0000 0.0000 0.0000 0.0000 0.0000 0.0000 0.0000 0.0000 0.0000 0.0000 0.0000 0.0000 0.0000 0.0000
0.0000 95.0000 0.0000 0.0000 0.0000 0.0000 0.0000 0.0000 0.0000 0.0000 0.0000 0.0000 0.0000 0.0000 0.0000 0.0000 0.0000 0.0000 0.0000 0.0000 0.0000 0.0000 0.0000 0.0000 -81.3600 -4.1629 -4.8425 -13.1812 -3.5812 3.9811 60.7379 30.6398 -19.8354 95.6606 -15.4364 -17.1184 8.5339 0.0000 0.0000 14.8258 0.0000 0.0000 9.9936 -0.7546 1.0656 45.2763 0.0000 0.0000 21.3632 0.0000 0.0000 18.2063 -0.4332 -2.0687 42.0817 0.0000 0.0000 14.5583 0.0000 0.0000 15.6503 -0.8608 3.2517 36.7214 0.0000 0.0000 13.6018 0.0000 0.0000 12.2977 0.8344 9.0165 19.1342 0.0000 0.0000 11.2171 0.0000 0.0000 0.0000 0.0000 0.0000 88.6781 -5.0956 5.2144 -3.1657 14.5822 13.6398 103.2523 -40.6696 76.8030 -54.2917 -14.0023 14.4873 14.4831 0.0000 0.0000 6.4747 0.0000 0.0000 10.2720 2.8505 26.2844 12.4319 0.0000 0.0000 10.4343 0.0000 0.0000 9.3906 -1.1432 18.6239 25.2197 0.0000 0.0000 8.8778 0.0000 0.0000 6.2546 -4.4656 24.3877 23.8863 0.0000 0.0000 14.5118 0.0000 0.0000 -2.1582 -7.3123 24.9505 12.2511 0.0000 0.0000 10.1539 0.0000 0.0000 0.0000 0.0000 0.0000 0.0000 0.0000 0.0000 0.0000 0.0000 0.0000 0.0000 0.0000 0.0000 0.0000 0.0000 0.0000 0.0000 0.0000 0.0000
